<?xml version="1.0" encoding="iso-8859-1"?>
<!-- Generator: Adobe Illustrator 20.0.0, SVG Export Plug-In . SVG Version: 6.00 Build 0)  -->
<svg version="1.1" id="Layer_1" xmlns="http://www.w3.org/2000/svg" xmlns:xlink="http://www.w3.org/1999/xlink" x="0px" y="0px"
	 viewBox="0 0 75 75" style="enable-background:new 0 0 75 75;" xml:space="preserve">
<path d="M18,38.25c0,0.828,0.672,1.5,1.5,1.5h32.309L38.762,52.797c-0.586,0.586-0.586,1.535,0,2.121
	c0.293,0.293,0.676,0.441,1.058,0.441c0.383,0,0.77-0.144,1.059-0.441l15.68-15.68c0.586-0.586,0.586-1.535,0-2.121L40.883,21.441
	c-0.586-0.586-1.535-0.586-2.121,0c-0.586,0.586-0.586,1.536,0,2.121L51.949,36.75H19.5C18.672,36.75,18,37.422,18,38.25z"/>
</svg>
