<?xml version="1.0" encoding="iso-8859-1"?>
<!-- Generator: Adobe Illustrator 20.0.0, SVG Export Plug-In . SVG Version: 6.00 Build 0)  -->
<svg version="1.1" id="Layer_1" xmlns="http://www.w3.org/2000/svg" xmlns:xlink="http://www.w3.org/1999/xlink" x="0px" y="0px"
	 viewBox="0 0 75 75" style="enable-background:new 0 0 75 75;" xml:space="preserve">
<path d="M27.906,52.466c2.521-1.55,5.576-2.99,8.086-3.853c-0.894-1.285-1.9-3.025-2.534-5.09c-0.882-0.723-1.599-1.747-2.053-3.008
	c-0.462-1.267-0.639-2.675-0.492-3.984c0.102-0.935,0.368-1.811,0.776-2.575c-0.249-2.664-0.426-7.884,3.002-11.697
	c1.326-1.479,3-2.538,5.007-3.184c-0.361-3.7-2.237-8.045-9.506-8.045c-11.75,0-9.43,11.324-9.353,12.982
	c-1.865,1.568-0.711,6.037,1.155,6.037c0.692,4.197,3.876,7.322,3.876,7.322s-0.029,2.953-1.112,3.126
	c-3.487,0.55-16.515,6.245-16.515,12.489h18.829C27.35,52.814,27.621,52.643,27.906,52.466z M50.245,51.472
	c-1.09-0.173-1.106-3.126-1.106-3.126s3.178-3.125,3.87-7.322c1.865,0,3.02-4.469,1.155-6.037
	c0.077-1.658,2.397-12.982-9.346-12.982s-9.424,11.324-9.346,12.982c-1.864,1.568-0.715,6.037,1.155,6.037
	c0.693,4.197,3.872,7.322,3.872,7.322s-0.024,2.953-1.108,3.126c-3.487,0.55-16.508,6.245-16.508,12.489h43.873
	C66.754,57.716,53.732,52.022,50.245,51.472z"/>
</svg>
