<?xml version="1.0" encoding="iso-8859-1"?>
<!-- Generator: Adobe Illustrator 20.0.0, SVG Export Plug-In . SVG Version: 6.00 Build 0)  -->
<svg version="1.1" id="Layer_1" xmlns="http://www.w3.org/2000/svg" xmlns:xlink="http://www.w3.org/1999/xlink" x="0px" y="0px"
	 viewBox="0 0 75 75" style="enable-background:new 0 0 75 75;" xml:space="preserve">
<path d="M66.383,39.336c-0.512,0.184-1.067,0.324-1.664,0.414c-2.028,0.324-4.399,0.574-6.887,0.836
	c-3.5,0.363-7.394,0.789-10.789,1.465c-1.016,0.203-1.734,1.261-2.004,2.261c-0.348,1.286-1.301,2.762-3.851,2.762h-6.633
	c-2.633,0-3.571-1.512-3.891-2.816c-0.246-1.004-0.945-2.055-1.961-2.254c-3.359-0.649-7.183-1.055-10.609-1.418
	c-2.492-0.258-4.86-0.512-6.891-0.836c-0.629-0.094-1.211-0.242-1.746-0.438c-0.934-0.339-1.621,0.047-1.625,1.083L7.754,53.934
	c-0.012,3.496,2.168,6.277,5.672,6.289H61.98c3.508,0.035,5.852-2.789,5.875-6.289l0.071-13.461
	C67.93,39.43,67.277,39.016,66.383,39.336z"/>
<path d="M31.969,18.48h12.117v4.02h4.484v-3.293c0.012-3.043-2.496-4.187-5.617-4.215h-9.758c-3.097-0.019-5.644,1.168-5.668,4.215
	V22.5h4.442V18.48z"/>
<path d="M42.098,42.379c0,0.449-0.227,1.594-1.946,1.594h-4.343c-1.719,0-1.946-1.098-1.946-1.547c0-2.184-3.078-2.723-3.078-2.723
	c-3.703-0.812-7.957-1.281-12.18-1.715c-2.425-0.254-4.73-0.5-6.71-0.8c-2.352-0.372-3.907-1.711-3.907-4.68l0.024-2.227
	c0.015-3.492,2.258-6.32,5.754-6.285h48.562c3.496,0.027,5.805,2.793,5.77,6.285l-0.012,3.453c0,1.743-1.609,3.106-3.844,3.454
	c-1.972,0.3-4.269,0.546-6.703,0.8c-4.281,0.446-8.598,0.922-12.332,1.766C45.211,39.754,42.098,40.191,42.098,42.379z"/>
</svg>
