<?xml version="1.0" encoding="iso-8859-1"?>
<!-- Generator: Adobe Illustrator 20.0.0, SVG Export Plug-In . SVG Version: 6.00 Build 0)  -->
<svg version="1.1" id="Layer_1" xmlns="http://www.w3.org/2000/svg" xmlns:xlink="http://www.w3.org/1999/xlink" x="0px" y="0px"
	 viewBox="0 0 75 75" style="enable-background:new 0 0 75 75;" xml:space="preserve">
<path d="M30.301,47.773H19.426c-5.176,0-9.449-4.199-9.449-9.449v-3c0-5.176,4.199-9.449,9.449-9.449h12.375
	c5.176,0,9.449,4.199,9.449,9.449v4.5c0,1.274,0.977,2.25,2.25,2.25s2.25-0.976,2.25-2.25v-4.5c0-7.648-6.227-13.949-13.949-13.949
	H19.426c-7.649,0-13.949,6.227-13.949,13.949v3c0,7.649,6.226,13.949,13.949,13.949h10.875c1.273,0,2.25-0.976,2.25-2.25
	C32.551,48.75,31.5,47.773,30.301,47.773z"/>
<path d="M55.801,21.375h-9.375c-1.274,0-2.25,0.977-2.25,2.25s0.976,2.25,2.25,2.25h9.375c5.176,0,9.449,4.199,9.449,9.449v3
	c0,5.176-4.199,9.449-9.449,9.449H44.926c-5.176,0-9.449-4.199-9.449-9.449v-4.5c0-1.273-0.977-2.25-2.25-2.25
	c-1.274,0-2.25,0.977-2.25,2.25v4.5c0,7.649,6.226,13.949,13.949,13.949h10.875c7.648,0,13.949-6.226,13.949-13.949v-3
	C69.75,27.676,63.523,21.375,55.801,21.375z"/>
</svg>
