<?xml version="1.0" encoding="iso-8859-1"?>
<!-- Generator: Adobe Illustrator 20.0.0, SVG Export Plug-In . SVG Version: 6.00 Build 0)  -->
<svg version="1.1" id="Layer_1" xmlns="http://www.w3.org/2000/svg" xmlns:xlink="http://www.w3.org/1999/xlink" x="0px" y="0px"
	 viewBox="0 0 75 75" style="enable-background:new 0 0 75 75;" xml:space="preserve">
<path d="M15.316,29.906l3.664-2.691l0.055,8.625L15.316,29.906z M41.156,26.156l-12.48-7.879c-1.039-0.879-2.383-1.41-3.852-1.398
	c-1.636,0.012-3.109,0.683-4.172,1.758L9.605,26.77c-1.242,0.914-1.574,2.64-0.753,3.949l7.578,10.398l2.625-1.656l0.015,2.18
	c0.004,0.343,0.039,0.675,0.098,1.004l0.727,13.949L21.07,75l5.836-0.129l0.375-18.488l-0.004-0.113l-0.332-6.375l2.258,5.98
	l1.141,19l5.594-0.07l0.648-19.676c-0.004-0.438-0.082-0.848-0.238-1.258l-5.465-14.473l-0.082-12.793l5.531,3.493l-1.211,10.343
	l4.684,0.817l2.691-12.094C42.695,27.984,42.168,26.797,41.156,26.156z M28.875,11.953c2.742-2.711,2.773-7.133,0.055-9.883
	c-2.711-2.738-7.129-2.765-9.879-0.054c-2.746,2.714-2.774,7.136-0.063,9.882C21.703,14.645,26.125,14.672,28.875,11.953z"/>
<path d="M64.059,33.926l-4.747,8.48l-5.605-4.019c-0.023-0.016-0.043-0.035-0.066-0.051l-0.246-0.18l-0.024,0.032
	c-0.633-0.368-1.359-0.59-2.141-0.594c-1.019-0.004-1.949,0.355-2.695,0.937l-6.379,3.875l-4.187-4.902l-2.27,1.637l4.371,6.961
	c0.375,0.519,0.965,0.8,1.567,0.8c0.34,0,0.687-0.09,1-0.281l4.195-2.547l-0.047,9.321c0,0.167,0.027,0.328,0.047,0.492
	l-2.238,7.707c-0.071,0.238-0.102,0.488-0.094,0.738L45.48,75l3.586-0.102l0.262-12.324l1.406-4.836
	c0.106,0.012,0.207,0.032,0.313,0.032l0.433,5.343c0.02,0.227,0.067,0.442,0.145,0.653l4.664,10.632l3.344-1.257l-3.375-10.754
	l-0.735-9.035l0.043-8.891l3.352,2.406c0.328,0.238,0.727,0.363,1.125,0.363c0.156,0,0.312-0.019,0.469-0.058
	c0.547-0.137,1.011-0.512,1.258-1.02l4.828-10.976L64.059,33.926z M54.762,34.879c2.183-2.211,2.164-5.777-0.051-7.965
	c-2.219-2.187-5.781-2.164-7.965,0.047c-2.191,2.219-2.168,5.781,0.043,7.965C49.004,37.113,52.57,37.094,54.762,34.879z"/>
</svg>
