<?xml version="1.0" encoding="iso-8859-1"?>
<!-- Generator: Adobe Illustrator 20.0.0, SVG Export Plug-In . SVG Version: 6.00 Build 0)  -->
<svg version="1.1" id="Layer_1" xmlns="http://www.w3.org/2000/svg" xmlns:xlink="http://www.w3.org/1999/xlink" x="0px" y="0px"
	 viewBox="0 0 75 75" style="enable-background:new 0 0 75 75;" xml:space="preserve">
<path d="M68.863,62.184c-0.547,0.546-1.09,1.089-1.91,1.636c-1.09,1.09-2.453,2.453-3.547,3.817c-1.91,1.91-3.816,2.726-7.09,2.453
	c-3.816-0.274-8.183-1.637-13.089-3.817C33.953,61.637,25.5,55.09,18.41,46.91c-5.453-6.547-9.273-13.09-12-19.91
	c-1.094-4.09-1.91-7.09-1.637-10.363c0.274-1.91,0.817-3.274,2.18-4.637C8.316,10.91,9.41,9.547,10.5,8.453
	c0.816-0.816,1.637-1.637,2.184-2.183c1.089-0.817,1.906-1.36,2.726-1.36c0.817,0,1.637,0.543,2.453,1.363
	c1.09,1.09,2.184,2.184,3.274,3.274c0.273,0.269,0.816,0.816,1.363,1.363l1.363,1.363c1.09,1.09,2.184,2.184,3.274,3.274
	c1.91,1.91,1.91,3.273,0,4.91l-1.364,1.09c-1.363,1.363-3,3-4.636,4.363c-0.821,0.817-1.637,2.18-0.821,4.09c1.09,3,3,5.727,5.454,9
	c4.636,5.727,9.546,10.363,15,13.637c0.816,0.547,1.636,1.09,2.453,1.363c0.547,0.273,0.816,0.273,1.363,0.547
	c1.637,0.816,3.273,0.547,4.637-0.547c1.91-1.637,3.547-3.547,5.183-5.184l0.547-0.273c1.637-1.637,3.274-1.637,4.91,0
	c3,3,6,6,9.274,9.273C70.5,58.637,70.5,60.547,68.863,62.184z M72.41,53.727c-3.273-3-6.273-6.274-9.273-9.274
	c-3.274-3.273-7.91-3.273-11.453,0l-0.547,0.274c-1.637,1.636-3.274,3-4.91,4.91c-0.274-0.274-0.547-0.274-0.817-0.274
	c-0.547-0.273-1.637-0.547-2.183-1.09c-4.911-3-9.274-7.089-13.911-12.546c-2.183-2.454-3.546-4.911-4.636-7.09
	c1.363-1.364,2.726-2.727,4.09-4.09l1.089-1.09c3.547-3.547,3.547-8.184,0-11.727c-1.089-1.089-2.183-2.183-3.273-3.273L25.773,7.09
	c-0.546-0.543-0.82-0.817-1.363-1.363c-1.094-1.09-2.183-2.18-3.273-3.274c-3.274-3.273-7.91-3.273-11.453,0
	C8.863,3.273,8.047,4.09,7.227,4.91C6.137,6,5.047,7.09,3.953,8.184c-2.18,2.179-3.543,4.906-3.816,7.906
	C-0.41,21,0.953,25.363,2.32,28.637C5.047,36,9.41,42.82,15.137,50.184C22.5,58.91,31.227,65.73,41.32,70.637
	c5.727,2.726,10.364,4.09,15,4.363c0.547,0,0.547,0,1.09,0c4.09,0,7.363-1.363,9.817-4.363c1.089-1.09,2.183-2.184,3.273-3.274
	c0.547-0.547,1.09-1.09,1.91-1.636C75.953,61.91,75.953,57.273,72.41,53.727z"/>
</svg>
