<?xml version="1.0" encoding="iso-8859-1"?>
<!-- Generator: Adobe Illustrator 20.0.0, SVG Export Plug-In . SVG Version: 6.00 Build 0)  -->
<svg version="1.1" id="Layer_1" xmlns="http://www.w3.org/2000/svg" xmlns:xlink="http://www.w3.org/1999/xlink" x="0px" y="0px"
	 viewBox="0 0 75 75" style="enable-background:new 0 0 75 75;" xml:space="preserve">
<path d="M51.699,17.34c0,7.84-6.359,14.199-14.199,14.199S23.301,25.18,23.301,17.34c0-7.844,6.359-14.199,14.199-14.199
	S51.699,9.496,51.699,17.34"/>
<path d="M13.262,58.047c0.312-0.445,0.34-0.457,0.785-0.867c0.828-0.762,1.336-1.129,1.254-2.43
	c-0.051-0.828-0.758-1.633-0.649-2.27c0.11-0.632,0.594-0.386,0.52-1.203c-0.047-0.523-0.328-0.945-0.695-1.304
	c-0.332-0.325-1.008-0.453-1.254-0.86c-0.219-0.363,0.031-0.902-0.063-1.304c-0.273-1.168-1.211-1.676-2.254-1.942
	c-1.297-0.328-1.558-0.316-1.531-1.633c0.023-1.086,0.008-1.281-0.391-2.242L8.66,41.578c-0.855-0.109-1.699,0.633-2.254,1.223
	c-1.23,1.32-2.66,2.988-3.445,4.601c-0.832,1.711-0.719,4.098-0.309,5.922c0.86,3.828,5.219,10.457,9.66,6.004
	C12.707,58.938,12.953,58.488,13.262,58.047z"/>
<path d="M60.852,59.164l-0.227-0.332c-0.203-0.289-0.203-0.289-0.594-0.648l-0.148-0.141c-0.813-0.742-1.656-1.508-1.539-3.375
	c0.039-0.633,0.277-1.172,0.468-1.606c0.04-0.085,0.086-0.203,0.129-0.273c-0.289-0.332-0.543-0.82-0.464-1.633
	c0.074-0.785,0.445-1.508,1.097-2.152c0.293-0.289,0.629-0.457,0.899-0.59c0.004-0.004,0.007-0.008,0.015-0.008
	c-0.023-0.25-0.047-0.566,0.035-0.91c0.352-1.496,1.442-2.488,3.239-2.945c0,0,0.265-0.063,0.414-0.102V27.555L37.5,35.438
	l-26.672-7.883v16.894c0.152,0.039,0.414,0.102,0.414,0.102c1.797,0.457,2.887,1.449,3.242,2.945c0.082,0.344,0.063,0.66,0.036,0.91
	c0.003,0,0.007,0.004,0.015,0.008c0.27,0.133,0.606,0.301,0.899,0.59c0.656,0.644,1.023,1.367,1.097,2.152
	c0.074,0.813-0.176,1.301-0.465,1.633c0.039,0.074,0.09,0.188,0.129,0.273c0.192,0.434,0.43,0.973,0.469,1.606
	c0.113,1.867-0.726,2.633-1.539,3.375l-0.152,0.137c-0.391,0.359-0.391,0.359-0.594,0.648l-0.227,0.332
	c-0.23,0.348-0.492,0.742-0.867,1.117c-0.773,0.778-1.597,1.289-2.453,1.586v2.59L37.5,71.859l26.672-7.402v-2.59
	c-0.856-0.297-1.676-0.805-2.453-1.586C61.344,59.906,61.082,59.512,60.852,59.164z"/>
<path d="M72.035,47.398c-0.785-1.609-2.215-3.281-3.445-4.601c-0.551-0.59-1.395-1.328-2.254-1.223l-0.324,0.414
	c-0.399,0.957-0.414,1.153-0.391,2.242c0.027,1.317-0.234,1.305-1.531,1.633c-1.039,0.266-1.977,0.77-2.254,1.942
	c-0.094,0.402,0.156,0.945-0.063,1.304c-0.246,0.407-0.921,0.532-1.253,0.86c-0.368,0.363-0.649,0.785-0.696,1.304
	c-0.074,0.817,0.41,0.571,0.516,1.204c0.109,0.64-0.594,1.441-0.645,2.269c-0.078,1.301,0.426,1.668,1.254,2.43
	c0.446,0.41,0.473,0.422,0.789,0.867c0.309,0.437,0.555,0.887,0.946,1.277c4.441,4.453,8.796-2.175,9.66-6.004
	C72.754,51.5,72.867,49.109,72.035,47.398z"/>
</svg>
