<?xml version="1.0" encoding="iso-8859-1"?>
<!-- Generator: Adobe Illustrator 20.0.0, SVG Export Plug-In . SVG Version: 6.00 Build 0)  -->
<svg version="1.1" id="Layer_1" xmlns="http://www.w3.org/2000/svg" xmlns:xlink="http://www.w3.org/1999/xlink" x="0px" y="0px"
	 viewBox="0 0 75 75" style="enable-background:new 0 0 75 75;" xml:space="preserve">
<path style="fill-rule:evenodd;clip-rule:evenodd;" d="M27.586,22.652c-3.906-1.836-5.801-6.035-4.231-9.379
	c1.571-3.339,6.012-4.566,9.918-2.73c3.907,1.832,5.801,6.035,4.231,9.379C35.934,23.262,31.488,24.488,27.586,22.652z
	 M48.797,29.816c-3.742-0.695-6.293-3.851-5.703-7.054c0.597-3.2,4.113-5.239,7.851-4.543c3.743,0.691,6.297,3.851,5.703,7.054
	C56.051,28.477,52.535,30.512,48.797,29.816z M31.527,30.273l-2.468-1.335c0.105-1.469,0.175-2.969,0.207-4.497h0.492
	c0.976,0,1.769,0.793,1.769,1.774V30.273z M12.352,35.195v-8.98c0-0.981,0.796-1.774,1.773-1.774h1.746
	c-0.762,3.918-1.16,8.11-1.254,12.528h-0.492C13.148,36.969,12.352,36.176,12.352,35.195z M33.094,38.539l-2.5-1.629l-0.719,1.102
	l-6.965-4.364c-0.64-0.418-1.105-1.003-1.363-1.66c-0.133-0.152-0.258-0.324-0.367-0.504l-3.633-6.007
	c-0.985-1.633-0.52-3.727,1.043-4.668c1.558-0.946,3.629-0.383,4.613,1.246l3.633,6.011c0.07,0.118,0.133,0.235,0.187,0.356
	l4.082,2.492c0.071,0.047,0.137,0.094,0.2,0.141l2.183,1.425l-0.285,0.438l5.445,3.559l-0.906,1.386l-2-1.304L33.094,38.539z
	 M59.297,39.863c-3.121-1.16-6.434-1.375-10.039-0.051c-3.024-1.093-6.223-1.296-9.696-0.074v-3.343
	c0-2.969,2.415-5.379,5.383-5.379h8.969c2.969,0,5.383,2.41,5.383,5.379V39.863z M10.586,42.934v-2.02
	c0-0.223,0.18-0.398,0.398-0.398h53.032c0.222,0,0.398,0.175,0.398,0.398v2.02c0,0.218-0.176,0.398-0.398,0.398H10.984
	C10.766,43.332,10.586,43.152,10.586,42.934z M50.562,65.309V48.973c0-1.387,1.129-2.516,2.516-2.516h1.984
	c1.391,0,2.516,1.129,2.516,2.516v16.336H50.562z M42.047,65.309V48.973c0-1.387,1.125-2.516,2.512-2.516h1.988
	c1.387,0,2.515,1.129,2.515,2.516v16.336H42.047z M28.551,65.309V47.352c0-1.59,1.289-2.879,2.879-2.879h2.273
	c1.586,0,2.879,1.289,2.879,2.879v17.957H28.551z M18.988,65.309V53.855h-7.359c-0.188,0-0.34-0.152-0.34-0.335v-1.7
	c0-0.183,0.152-0.332,0.34-0.332h7.359V47.23c0-1.589,1.289-2.878,2.879-2.878h2.274c1.589,0,2.879,1.289,2.879,2.878v18.079H18.988
	z"/>
</svg>
