<?xml version="1.0" encoding="iso-8859-1"?>
<!-- Generator: Adobe Illustrator 20.0.0, SVG Export Plug-In . SVG Version: 6.00 Build 0)  -->
<svg version="1.1" id="Layer_1" xmlns="http://www.w3.org/2000/svg" xmlns:xlink="http://www.w3.org/1999/xlink" x="0px" y="0px"
	 viewBox="0 0 75 75" style="enable-background:new 0 0 75 75;" xml:space="preserve">
<path d="M32.758,52.836c0,0-4.301-0.098-9.082-0.309c-0.129-0.007-0.258-0.011-0.387-0.019s-0.258-0.012-0.387-0.02
	c-2.769-0.129-5.621-0.3-7.843-0.515c-0.161-0.016-0.321-0.032-0.473-0.047c-0.164-0.016-0.32-0.035-0.477-0.051
	c-0.933-0.105-1.714-0.223-2.261-0.348l0.199-1.961l0.086-0.867l0.273-2.691c0,0,2.774,0.226,6.887,0.445
	c0.129,0.008,0.258,0.012,0.387,0.02c0.129,0.007,0.258,0.011,0.386,0.019c3.692,0.188,8.317,0.356,12.965,0.356L32.758,52.836z
	 M45.691,26.516c-2.863-13.02-16.242-11.637-16.812-11.575c-0.027,0.004-0.059,0.004-0.086,0.004c-0.02,0-2.352-0.019-5.305,1.254
	c-0.75,0.324-1.59,0.758-2.465,1.321c-0.585,0.378-1.187,0.816-1.793,1.324c-0.453,0.379-0.906,0.797-1.355,1.258
	c-3.766,5.261-5.258,12.285-5.578,13.976c0.859-0.117,7.469-0.953,17.891-0.152c1.042,0.062,1.996,0.148,2.855,0.254
	c1.207,0.144,2.238,0.332,3.066,0.554c0.086,0.008,0.668,0.071,1.493,0.368c2.32,0.832,6.566,3.503,7.078,12.015
	c0.711,11.77-1.399,19.836-1.426,19.942c-0.008,0.039-0.68,3.285-6.77,4.414c1.547-0.875,2.985-2.477,3.375-5.414
	c0.934-6.997,1.457-16.485,0.719-20.254c-0.738-3.77-1.773-6.977-6.949-8.024c-3.438-0.695-9.688-0.843-14.328-0.843
	c-2.078,0-3.805,0.027-4.903,0.054C14.262,36.996,14.145,37,14.027,37c-0.14,0.004-0.261,0.008-0.371,0.008
	c-0.058,0-0.129,0.004-0.179,0.004c-0.227,0-1.09,0.035-2.141,0.402c-0.066,0.024-0.129,0.047-0.191,0.07
	c-0.153,0.059-0.309,0.121-0.469,0.192c-0.203,0.094-0.403,0.195-0.59,0.304c-2.367,1.415-3.336,4.051-3.727,5.825
	c-0.054,0.289-0.101,0.586-0.14,0.898c-0.746,6.207-0.699,12.824-0.59,19.07c0.098,5.594,3.433,6.192,5.871,6.629
	c0.23,0.039,0.457,0.082,0.672,0.125c2.699,0.535,14.433,1.75,19.5,1.946c0,0,0.266,0.031,0.703,0.031
	c0.203,0,0.473-0.008,0.785-0.035c0.629-0.024,1.219-0.067,1.774-0.125h0.007c0.141,0.004,0.286,0.004,0.426,0.004
	c0.899,0,1.817-0.067,2.75-0.188c4.117-0.996,7.192-1.961,7.258-1.98c0.535-0.196,1.016-0.489,1.43-0.946
	c0.148-0.16,0.289-0.339,0.418-0.546c0.843-1.352,1.32-3.758,1.308-8.243l-0.004-1.484C48.512,51.598,48.496,39.281,45.691,26.516z
	 M55.52,50.074c-0.629-10.594-2.383-25.617-4.719-30.496c-0.121-0.254-0.254-0.488-0.383-0.723c0.539-0.847,2.184-2.21,3.086-2.375
	c0,0,6.258,13.86,8.934,38.918C62.438,55.395,57.211,51.188,55.52,50.074z M56.363,11.93c-4.457-1.575-8.855,3.031-9.039,3.367
	c-0.39-0.274-0.801-0.52-1.234-0.738c-0.02-0.602,0.105-5.121-1.418-8.141c-1.336-2.648-2.996-3.117-5.996-3.117
	c-0.797,0-1.711,0.035-2.653,0.074c-4.543,0.191-6.968,7.113-7.39,9.293c0.117-0.02,0.23-0.039,0.34-0.055
	c0.117-0.019,0.23-0.035,0.339-0.047c0.719-0.093,1.204-0.097,1.36-0.097c0.129-0.012,0.519-0.043,1.098-0.051
	c0.105,0,1.148-0.035,1.265-0.035c0.106,0,0.211,0,0.324,0.004c0.532-2.633,1.657-4.649,3.77-4.742
	c0.637-0.028,1.047,0.011,1.539,0.011c1.777,0,1.937,0.086,2.684,1.676c0.824,1.754,0.539,2.82,0.586,3.898
	c-1.844-0.378-3.29-0.371-5.797-0.421c0.511,0.097,1.039,0.222,1.582,0.371c0.406,0.113,0.816,0.238,1.23,0.382
	c4.059,1.434,8.383,4.598,9.899,11.485c2.836,12.898,2.851,25.305,2.863,32.715l0.004,1.484c0.011,3.301-0.235,5.692-0.821,7.418
	c-0.046,0.145-0.101,0.285-0.152,0.422c-0.058,0.152-0.121,0.301-0.184,0.441c0.051-0.023,0.098-0.043,0.149-0.07
	c0.344-0.168,0.668-0.312,0.98-0.453c2.403-1.082,3.989-1.797,3.887-7.504c-0.012-0.773-0.051-1.859-0.105-3.18
	c0.832,0.739,3.957,3.5,6.172,5.434c2.578,2.25,3.71,1.535,3.71,1.535c2.782-0.512,4.079-2.816,4.079-2.816
	C60.523,10.109,56.363,11.93,56.363,11.93z"/>
</svg>
