<?xml version="1.0" encoding="iso-8859-1"?>
<!-- Generator: Adobe Illustrator 20.0.0, SVG Export Plug-In . SVG Version: 6.00 Build 0)  -->
<svg version="1.1" id="Layer_1" xmlns="http://www.w3.org/2000/svg" xmlns:xlink="http://www.w3.org/1999/xlink" x="0px" y="0px"
	 viewBox="0 0 75 75" style="enable-background:new 0 0 75 75;" xml:space="preserve">
<path d="M30,45c-8.285,0-15-6.715-15-15s6.715-15,15-15s15,6.715,15,15S38.285,45,30,45z M62.652,57.348L48.328,43.027
	C50.953,39.348,52.5,34.852,52.5,30C52.5,17.594,42.406,7.5,30,7.5S7.5,17.594,7.5,30S17.594,52.5,30,52.5
	c4.852,0,9.348-1.547,13.027-4.172l14.325,14.324c0.726,0.731,1.687,1.098,2.648,1.098s1.922-0.367,2.652-1.098
	C64.117,61.188,64.117,58.812,62.652,57.348z"/>
</svg>
