<?xml version="1.0" encoding="iso-8859-1"?>
<!-- Generator: Adobe Illustrator 20.0.0, SVG Export Plug-In . SVG Version: 6.00 Build 0)  -->
<svg version="1.1" id="Layer_1" xmlns="http://www.w3.org/2000/svg" xmlns:xlink="http://www.w3.org/1999/xlink" x="0px" y="0px"
	 viewBox="0 0 75 75" style="enable-background:new 0 0 75 75;" xml:space="preserve">
<path d="M45.715,34.742c-3.11,1.188-5.102,3.477-5.102,6.895h-7.687c0-8.711,5.558-11.332,9.101-12.188
	c2.172-0.523,4.262-1.211,4.379-4.164c0.094-2.383-1.301-5.316-7.207-5.199c-6.547,0.133-6.984,4.926-7.004,6.516l-7.687,0.093
	c-0.008-0.523,0.004-5.211,3.644-8.925c2.7-2.754,6.524-4.149,11.368-4.149c11.292,0,14.105,7.188,14.277,10.984
	C54.082,30.957,49.09,33.453,45.715,34.742z M40.523,53.539h-7.507v-7.508h7.507V53.539z M64.402,6.488H10.941
	c-4.812,0-8.714,3.903-8.714,8.715v39.371c0,4.813,3.902,8.719,8.714,8.719h6.836l0.004,7.195l8.996-7.195h37.625
	c4.813,0,8.715-3.902,8.715-8.719V15.203C73.121,10.391,69.219,6.488,64.402,6.488z"/>
</svg>
